<svg xmlns="http://www.w3.org/2000/svg" width="174.5" height="32"><g fill="#37454D"><path d="M47.141 23.207h-2.376V8.303h-5.448V6.215h13.272v2.088h-5.448v14.904zM59.021 15.839c0-.848-.256-1.476-.768-1.884-.512-.408-1.192-.612-2.04-.612-.64 0-1.244.124-1.812.372a4.606 4.606 0 0 0-1.428.948l-1.2-1.44c.56-.528 1.244-.944 2.052-1.248a7.334 7.334 0 0 1 2.604-.456c.816 0 1.524.116 2.124.348.6.232 1.092.548 1.476.948.384.4.672.873.864 1.416.192.544.288 1.128.288 1.752v4.968c0 .384.012.788.036 1.212.024.424.068.772.132 1.044h-2.04a7.104 7.104 0 0 1-.192-1.632h-.072a4.369 4.369 0 0 1-1.572 1.416c-.632.336-1.38.504-2.244.504-.448 0-.916-.06-1.404-.18a4.05 4.05 0 0 1-1.332-.588c-.4-.272-.732-.632-.996-1.08s-.396-1-.396-1.656c0-.864.232-1.548.696-2.052s1.072-.888 1.824-1.152c.752-.264 1.6-.436 2.544-.516.944-.08 1.896-.12 2.856-.12v-.312zm-.552 1.944c-.561 0-1.14.024-1.74.072s-1.144.144-1.632.288-.892.359-1.212.647c-.32.288-.48.672-.48 1.152 0 .336.068.616.204.84.136.225.316.408.54.552.224.145.472.244.744.301.272.056.552.084.84.084 1.056 0 1.868-.316 2.436-.948s.852-1.428.852-2.389v-.6h-.552zM66.772 23.207h-2.256V5.063h2.256v18.144zM80.861 17.423v.385c0 .128-.008.256-.024.384h-9.048c.016.477.124.926.324 1.347.2.421.468.786.804 1.097a3.763 3.763 0 0 0 2.568.989c.768 0 1.432-.168 1.992-.504s1-.744 1.32-1.224l1.584 1.271c-.608.807-1.324 1.4-2.148 1.781-.825.381-1.74.571-2.748.571-.864 0-1.665-.145-2.4-.433s-1.368-.691-1.896-1.212a5.608 5.608 0 0 1-1.248-1.884c-.304-.735-.456-1.552-.456-2.448 0-.88.148-1.692.444-2.436.297-.744.71-1.38 1.239-1.908a5.675 5.675 0 0 1 1.876-1.236 6.088 6.088 0 0 1 2.333-.444c.833 0 1.591.136 2.273.408a4.699 4.699 0 0 1 1.732 1.176c.473.512.837 1.132 1.094 1.86.256.728.385 1.549.385 2.46zm-2.304-.911a4.297 4.297 0 0 0-.228-1.261 2.893 2.893 0 0 0-.6-1.02c-.264-.288-.592-.516-.984-.684s-.852-.252-1.38-.252a3.647 3.647 0 0 0-2.46.936 3.603 3.603 0 0 0-.768 1.02c-.2.392-.316.812-.348 1.261h6.768zM85.541 11.831a20.906 20.906 0 0 1 .096 1.872h.072c.144-.304.34-.588.589-.852a4.203 4.203 0 0 1 1.909-1.164 4.252 4.252 0 0 1 1.199-.168c.736 0 1.367.124 1.896.372.527.248.967.58 1.32.996.352.416.611.904.779 1.464s.252 1.16.252 1.8v7.056h-2.256v-6.312c0-.464-.037-.904-.107-1.32a3.199 3.199 0 0 0-.396-1.104c-.193-.32-.457-.576-.793-.768s-.768-.288-1.295-.288c-.896 0-1.629.34-2.197 1.02-.567.68-.851 1.588-.851 2.724v6.048H83.5v-8.928c0-.304-.008-.696-.024-1.176a24.16 24.16 0 0 0-.072-1.272h2.137zM102.556 13.679h-3.023v5.91c0 .687.128 1.177.384 1.472s.664.442 1.224.442c.208 0 .433-.021.672-.065.24-.044.456-.11.648-.198l.072 1.848a5.471 5.471 0 0 1-.9.229 6.052 6.052 0 0 1-1.02.084c-1.072 0-1.893-.296-2.46-.888-.568-.592-.853-1.48-.853-2.664v-6.168h-2.184v-1.848H97.3V8.567h2.232v3.264h3.023v1.848zM118.828 19.271h.049l5.016-13.057h3.696v16.992h-2.376V8.999h-.049l-5.64 14.208h-1.512l-5.616-14.208h-.048v14.208h-2.304V6.215h3.696l5.088 13.056zM138.197 15.839c0-.848-.257-1.476-.769-1.884-.512-.408-1.192-.612-2.04-.612-.64 0-1.244.124-1.812.372a4.623 4.623 0 0 0-1.429.948l-1.199-1.44c.56-.528 1.243-.944 2.052-1.248a7.334 7.334 0 0 1 2.604-.456c.816 0 1.524.116 2.124.348.601.232 1.093.548 1.477.948.384.4.672.873.864 1.416.191.544.287 1.128.287 1.752v4.968c0 .384.013.788.036 1.212.024.424.068.772.132 1.044h-2.04a7.103 7.103 0 0 1-.191-1.632h-.072c-.416.608-.94 1.08-1.572 1.416s-1.38.504-2.243.504c-.448 0-.917-.06-1.404-.18a4.05 4.05 0 0 1-1.332-.588c-.4-.272-.732-.632-.996-1.08s-.396-1-.396-1.656c0-.864.232-1.548.696-2.052s1.072-.888 1.824-1.152c.752-.264 1.6-.436 2.544-.516s1.896-.12 2.856-.12v-.312zm-.552 1.944c-.56 0-1.14.024-1.739.072a8.035 8.035 0 0 0-1.633.288c-.488.144-.892.359-1.212.647s-.479.672-.479 1.152c0 .336.067.616.204.84.136.225.315.408.54.552.224.145.472.244.744.301.271.056.552.084.84.084 1.056 0 1.867-.316 2.436-.948s.853-1.428.853-2.389v-.6h-.554zM148.972 13.679h-3.023v5.91c0 .687.128 1.177.384 1.472s.664.442 1.224.442c.208 0 .433-.021.672-.065.24-.044.456-.11.648-.198l.072 1.848a5.471 5.471 0 0 1-.9.229 6.052 6.052 0 0 1-1.02.084c-1.072 0-1.893-.296-2.46-.888-.568-.592-.853-1.48-.853-2.664v-6.168h-2.184v-1.848h2.184V8.567h2.232v3.264h3.023v1.848zM158.788 14.711c-.24-.368-.601-.676-1.08-.924a3.299 3.299 0 0 0-1.536-.372c-.592 0-1.116.112-1.572.336a3.585 3.585 0 0 0-1.164.9 3.966 3.966 0 0 0-.731 1.308c-.168.496-.252 1.017-.252 1.561s.084 1.064.252 1.56c.168.496.412.933.731 1.309.32.376.712.676 1.177.899.464.225.991.336 1.584.336.576 0 1.1-.111 1.571-.336.472-.224.86-.528 1.164-.912l1.513 1.368a4.89 4.89 0 0 1-1.801 1.309c-.72.312-1.535.468-2.447.468-.881 0-1.692-.145-2.437-.433s-1.388-.691-1.932-1.212a5.577 5.577 0 0 1-1.284-1.884c-.312-.735-.468-1.56-.468-2.472 0-.896.151-1.712.456-2.449a5.593 5.593 0 0 1 1.271-1.896 5.68 5.68 0 0 1 1.933-1.224 6.62 6.62 0 0 1 2.412-.432c.8 0 1.596.16 2.388.48.792.32 1.42.784 1.884 1.392l-1.632 1.32zM164.548 13.559c.272-.56.736-1.04 1.393-1.44.655-.4 1.392-.6 2.208-.6.735 0 1.367.124 1.896.372s.968.58 1.32.996c.352.416.611.904.779 1.464s.252 1.16.252 1.8v7.056h-2.256v-6.303c0-.466-.036-.907-.107-1.324a3.182 3.182 0 0 0-.396-1.106 2.173 2.173 0 0 0-.78-.77c-.328-.192-.756-.289-1.283-.289-.896 0-1.632.341-2.208 1.022-.576.682-.864 1.592-.864 2.731v6.038h-2.256V5.063h2.256v8.496h.046z"/></g><path fill="#C94A30" d="M12.153 27.151C-.473 20.834 1.417 9.375 4.698 4.334A16.413 16.413 0 0 0 2.239 7.34l-.001.004v-.001C1.291 8.835-.85 12.869.363 18.012c1.207 5.116 4.792 8.568 7.653 10.451 4.606 3.029 9.079 3.706 12.231 3.505a11.894 11.894 0 0 0 9.351-5.481 13.236 13.236 0 0 0 1.518-3.42c-.443.685-6.46 10.339-18.963 4.084z"/><path fill="#F48F00" d="M20.721 26.887a7.245 7.245 0 0 1-.678.05c-2.644.041-5.481-.864-7.471-1.901-1.504-.784-3.48-2.108-4.978-4.102C0 11.292 9.792 1.375 12.476.21c-.533.093-1.137.228-1.775.424-1.636.502-3.929 1.696-6.002 3.7-.326.412-.641.852-.935 1.314l-.001.004v-.001h-.001C2.84 7.105.752 11.037 1.935 16.049c1.176 4.987 4.67 8.352 7.459 10.187 4.489 2.953 8.849 3.612 11.921 3.416a11.585 11.585 0 0 0 9.8-6.585c.047-.171.068-.27.068-.27.105-.42.25-1.185.289-1.437.321-2.032.136-4.023-.203-5.679C30.833 19.25 28 26.25 20.721 26.887zM6.49 19.142l-.007-.016.009.019-.002-.003zm13.563 7.796h-.006l.021-.001-.015.001z"/><path fill="#007FAD" d="M28.928 9.596a18.163 18.163 0 0 0-.734-1.176 20.636 20.636 0 0 0-1.078-1.452 2.28 2.28 0 0 0-3.173-.334c-.985.782-1.143 2.188-.367 3.199.855 1.113 1.381 2.009 2.009 3.364a15.3 15.3 0 0 1 1.126 3.721c.243 1.475.428 4.511-1.205 6.914-.52.765-1.756 2.49-4.283 2.978l-.041.007a7.066 7.066 0 0 1-.461.071c.26-.002.513-.012.756-.028a10.218 10.218 0 0 0 8.038-4.712c1.032-1.637 1.364-3.171 1.364-3.171.09-.361.214-1.019.249-1.235.11-.699.151-1.39.142-2.06a20.295 20.295 0 0 0-.536-2.051c-.484-1.522-1.158-2.86-1.806-4.035zM6.493 19.147c-.349-.709-.63-1.48-.82-2.318-.258-1.14-.425-4.088 1.302-6.591 1.86-2.695 4-4.417 8.949-4.48 1.58-.021 2.817-.843 2.986-2.448.169-1.604-.871-2.974-2.6-3.211a11.295 11.295 0 0 0-1.783-.095h-.003s-.836-.006-2.05.207c-1.977.807-4.629 2.569-6.479 5.478l.001.003c-.813 1.282-2.655 4.75-1.612 9.171.583 2.472 1.81 4.489 3.211 6.072a11.176 11.176 0 0 1-1.102-1.788zm-.003-.005l-.007-.016.009.019-.002-.003z"/></svg>